# xmcd
#
# Track frame offsets:
#	150
#	20391
#	34765
#	50753
#	65657
#	87993
#	101241
#	113041
#	124912
#	142995
#	161026
#	175213
#	184780
#	207782
#	220781
#	239214
#	257459
#	273814
#	295104
#	304604
#	329703
#	342150
#
# Disc length: 4746 seconds
#
# Revision: 1
# Processed by: cddbd v1.5.2PL0 Copyright (c) Steve Scherf et al.
# Submitted via: EZCDAudioConverter 7.0.6.1
#
DISCID=4e128816
DTITLE=Various Artist - One Way Glass [CD1)
DYEAR=2017
DGENRE=blues
TTITLE0=Trifle - One Way Glass
TTITLE1=Colosseum - Elegy
TTITLE2=Curtiss Maldoon - Man From Afghanistan
TTITLE3=Paul Brett Sage - 3D Mona Lisa
TTITLE4=Quicksand - Home Is Where I Belong
TTITLE5=Second Hand - Somethin' You Got
TTITLE6=Paladin - Get One Together
TTITLE7=Fat Mattress - Cold Wall Of Stone
TTITLE8=Hard Stuff - Libel
TTITLE9=Gravy Train - Sanctuary
TTITLE10=The Web - City Of Darkness
TTITLE11=Patrick Campbell-Lyons - Out Of Nowhere
TTITLE12=Gasoline Band - The Bitch
TTITLE13=Pentangle - I Saw An Angel
TTITLE14=Jonesy - Ricochet
TTITLE15=Edwards Hand - Revolution's Death Man
TTITLE16=Bond and Brown - Macumbe
TTITLE17=CMU - Henry
TTITLE18=Knocker Jungle - Sunburnt Virgin Trousers
TTITLE19=Climax Chicago Blues Band - Cubano Chant
TTITLE20=Open Road - She's My Sister
TTITLE21=Crazy World Of Arthur Brown - The Lord Doesn't Want You
EXTD=
EXTT0=
EXTT1=
EXTT2=
EXTT3=
EXTT4=
EXTT5=
EXTT6=
EXTT7=
EXTT8=
EXTT9=
EXTT10=
EXTT11=
EXTT12=
EXTT13=
EXTT14=
EXTT15=
EXTT16=
EXTT17=
EXTT18=
EXTT19=
EXTT20=
EXTT21=
PLAYORDER=
